<svg width="33" height="33" viewBox="0 0 33 33" fill="none" xmlns="http://www.w3.org/2000/svg">
<path d="M16.332 0.333344C18.4332 0.333344 20.5138 0.747196 22.455 1.55127C24.3962 2.35535 26.16 3.5339 27.6457 5.01964C29.1315 6.50537 30.31 8.2692 31.1141 10.2104C31.9182 12.1516 32.332 14.2322 32.332 16.3333C32.332 20.5768 30.6463 24.6465 27.6457 27.6471C24.6452 30.6476 20.5755 32.3333 16.332 32.3333C14.2309 32.3333 12.1503 31.9195 10.2091 31.1154C8.26789 30.3113 6.50406 29.1328 5.01832 27.6471C2.01774 24.6465 0.332031 20.5768 0.332031 16.3333C0.332031 12.0899 2.01774 8.02022 5.01832 5.01964C8.01891 2.01905 12.0886 0.333344 16.332 0.333344ZM16.332 3.53334C9.27603 3.53334 3.53203 9.27734 3.53203 16.3333C3.53203 23.3893 9.27603 29.1333 16.332 29.1333C23.388 29.1333 29.132 23.3893 29.132 16.3333C29.132 9.27734 23.388 3.53334 16.332 3.53334ZM22.732 9.93334V22.7333L14.732 16.3333M13.132 9.93334V22.7333H9.93203V9.93334" fill="#096E3E"/>
</svg>
